<svg xmlns="http://www.w3.org/2000/svg" xmlns:xlink="http://www.w3.org/1999/xlink" width="42" height="42" viewBox="0 0 42 42">
  <defs>
    <clipPath id="clip-Artboard_9">
      <rect width="42" height="42"/>
    </clipPath>
  </defs>
  <g id="Artboard_9" data-name="Artboard – 9" clip-path="url(#clip-Artboard_9)">
    <g id="chart">
      <path id="Path_15974" data-name="Path 15974" d="M23.187,0H4.812A4.81,4.81,0,0,0,0,4.812V31.937A4.81,4.81,0,0,0,4.812,36.75H17.447l-.122-.192a4.748,4.748,0,0,1,.787-5.932A4.685,4.685,0,0,1,16.73,26.25h.333a1.019,1.019,0,0,1-.333-.052,4.439,4.439,0,0,1,.6-1.5l.647-1.067.77-1.243a4.886,4.886,0,0,1,4.007-2.31h.122a5.129,5.129,0,0,1,1.628.28,4.782,4.782,0,0,1,3.5-3.57V4.813A4.81,4.81,0,0,0,23.187,0Z" transform="translate(0)" fill="#eceff1"/>
      <path id="Path_15975" data-name="Path 15975" d="M14,0H4.812A4.81,4.81,0,0,0,0,4.812V31.937A4.81,4.81,0,0,0,4.812,36.75H14Z" transform="translate(0)" fill="#cdd0d2"/>
      <path id="Path_15976" data-name="Path 15976" d="M4.312,17.125a1.313,1.313,0,0,1-.927-2.242L7.76,10.508A1.306,1.306,0,0,1,9.338,10.3l2.228,1.274L15.6,7.848a1.313,1.313,0,0,1,1.781,1.928l-4.739,4.375a1.31,1.31,0,0,1-1.542.175L8.91,13.073,5.24,16.74a1.3,1.3,0,0,1-.927.385Z" transform="translate(2.25 5.625)" fill="#4caf50"/>
      <path id="Path_15977" data-name="Path 15977" d="M13.688,14a1.306,1.306,0,0,1-.927-.385L8.385,9.24A1.312,1.312,0,0,1,9.313,7h4.375A1.313,1.313,0,0,1,15,8.313v4.375A1.312,1.312,0,0,1,13.688,14Z" transform="translate(6 5.25)" fill="#4caf50"/>
      <path id="Path_15978" data-name="Path 15978" d="M14.014,9.449l-2.429,2.277L9.1,10.306a.881.881,0,0,0-1.054.142l-4.83,4.83a1.31,1.31,0,0,0,1.855,0l3.666-3.666,2.191,1.253a1.31,1.31,0,0,0,1.543-.173l2.485-2.3Z" transform="translate(2.415 7.087)" fill="#429846"/>
      <path id="Path_15979" data-name="Path 15979" d="M13.562,7.213,9.388,11.126l.947.947,1.383,1.382a1.309,1.309,0,0,0,.927.385,1.314,1.314,0,0,0,1.314-1.312V8.153a1.305,1.305,0,0,0-.4-.94Z" transform="translate(7.041 5.41)" fill="#429846"/>
      <path id="Path_15980" data-name="Path 15980" d="M31.213,22.981c.018-.193.03-.4.03-.606s-.012-.413-.03-.606L32.8,20.69a2.126,2.126,0,0,0,.634-2.872L32.018,15.5a2.227,2.227,0,0,0-2.767-.864l-1.886.8a8.837,8.837,0,0,0-1.188-.658l-.194-1.851A2.181,2.181,0,0,0,23.793,11H20.958a2.183,2.183,0,0,0-2.191,1.93l-.194,1.85a8.752,8.752,0,0,0-1.188.658l-1.885-.8a2.235,2.235,0,0,0-2.77.866l-1.416,2.315a2.124,2.124,0,0,0,.632,2.873l1.591,1.081c-.018.192-.03.4-.03.606s.012.413.03.605l-1.591,1.08a2.124,2.124,0,0,0-.633,2.872l1.419,2.32a2.23,2.23,0,0,0,2.767.865l1.887-.8a8.837,8.837,0,0,0,1.188.658l.194,1.852a2.184,2.184,0,0,0,2.191,1.925h2.833a2.183,2.183,0,0,0,2.191-1.93l.194-1.85a8.752,8.752,0,0,0,1.188-.658l1.885.8a2.228,2.228,0,0,0,2.77-.866l1.416-2.315A2.124,2.124,0,0,0,32.8,24.06ZM22.375,26.75a4.375,4.375,0,1,1,4.375-4.375A4.38,4.38,0,0,1,22.375,26.75Z" transform="translate(8.25 8.25)" fill="#fe9923"/>
      <path id="Path_15981" data-name="Path 15981" d="M22.375,11H20.958a2.183,2.183,0,0,0-2.191,1.93l-.194,1.85a8.752,8.752,0,0,0-1.188.658l-1.885-.8a2.239,2.239,0,0,0-2.77.866l-1.416,2.315a2.124,2.124,0,0,0,.632,2.874l1.591,1.081c-.017.193-.03.4-.03.606s.012.413.03.606l-1.591,1.08a2.124,2.124,0,0,0-.633,2.872l1.419,2.32a2.213,2.213,0,0,0,1.89,1.043,2.238,2.238,0,0,0,.877-.178l1.886-.8a8.838,8.838,0,0,0,1.188.658l.194,1.851a2.184,2.184,0,0,0,2.191,1.925h1.417v-7a4.375,4.375,0,0,1,0-8.75Z" transform="translate(8.25 8.25)" fill="#fea832"/>
    </g>
  </g>
</svg>
