<svg xmlns="http://www.w3.org/2000/svg" xmlns:xlink="http://www.w3.org/1999/xlink" width="42" height="42" viewBox="0 0 42 42">
  <defs>
    <clipPath id="clip-Artboard_7">
      <rect width="42" height="42"/>
    </clipPath>
  </defs>
  <g id="Artboard_7" data-name="Artboard – 7" clip-path="url(#clip-Artboard_7)">
    <g id="Group_639" data-name="Group 639" transform="translate(-50 -666)">
      <path id="Path_15970" data-name="Path 15970" d="M42,21A21,21,0,0,1,6.151,35.849a21,21,0,0,1,29.7-29.7A20.863,20.863,0,0,1,42,21Z" transform="translate(50 666)" fill="#fff"/>
      <path id="Path_15971" data-name="Path 15971" d="M262.312,21a21,21,0,0,1-21,21q-.66,0-1.312-.04A21,21,0,0,0,253.537,6.151,20.846,20.846,0,0,0,240,.04Q240.653,0,241.312,0a21,21,0,0,1,21,21Z" transform="translate(-170.313 666)" fill="#d5d5d5"/>
      <g id="Group_636" data-name="Group 636" transform="translate(64.437 673.875)">
        <path id="Path_15972" data-name="Path 15972" d="M182.563,118.313A1.313,1.313,0,0,1,181.25,117a12.322,12.322,0,0,1,3.633-8.77,7.712,7.712,0,0,0,2.273-5.489,4.121,4.121,0,0,0-4.116-4.116h-.3a4.121,4.121,0,0,0-4.116,4.116v.478a1.312,1.312,0,1,1-2.625,0v-.478A6.749,6.749,0,0,1,182.741,96h.3a6.749,6.749,0,0,1,6.741,6.741,10.319,10.319,0,0,1-3.042,7.345A9.714,9.714,0,0,0,183.875,117,1.313,1.313,0,0,1,182.563,118.313Z" transform="translate(-176 -96)" fill="#fe9923"/>
        <path id="Path_15973" data-name="Path 15973" d="M241.328,402.625a1.313,1.313,0,0,1,0-2.625h0a1.313,1.313,0,0,1,0,2.625Z" transform="translate(-234.764 -375.062)" fill="#fe9923"/>
      </g>
    </g>
  </g>
</svg>
