<svg xmlns="http://www.w3.org/2000/svg" xmlns:xlink="http://www.w3.org/1999/xlink" width="42" height="42" viewBox="0 0 42 42">
  <defs>
    <clipPath id="clip-Artboard_8">
      <rect width="42" height="42"/>
    </clipPath>
  </defs>
  <g id="Artboard_8" data-name="Artboard – 8" clip-path="url(#clip-Artboard_8)">
    <g id="quality-control" transform="translate(2.855 0.092)">
      <path id="Path_12945" data-name="Path 12945" d="M23.49,65.373V94.211a1.373,1.373,0,0,1-1.373,1.373H1.518A1.373,1.373,0,0,1,.145,94.211V65.373A1.373,1.373,0,0,1,1.518,64h20.6A1.373,1.373,0,0,1,23.49,65.373Zm0,0" transform="translate(0 -58.507)" fill="#04458f"/>
      <path id="Path_12946" data-name="Path 12946" d="M16.145,80h20.6v28.838h-20.6Zm0,0" transform="translate(-14.626 -73.134)" fill="#edeff1"/>
      <g id="Group_42" data-name="Group 42" transform="translate(2.891 10.986)">
        <path id="Path_12947" data-name="Path 12947" d="M32.144,128H50v1.373H32.144Zm0,0" transform="translate(-32.144 -128)" fill="#d3d3d3"/>
        <path id="Path_12948" data-name="Path 12948" d="M32.144,176H50v1.373H32.144Zm0,0" transform="translate(-32.144 -171.88)" fill="#d3d3d3"/>
        <path id="Path_12949" data-name="Path 12949" d="M32.144,216H46.563v1.373H32.144Zm0,0" transform="translate(-32.144 -208.447)" fill="#d3d3d3"/>
      </g>
      <path id="Path_12950" data-name="Path 12950" d="M106.891,0a2.747,2.747,0,0,0-2.746,2.746v4.12h5.493V2.746A2.747,2.747,0,0,0,106.891,0Zm0,3.433a.687.687,0,1,1,.687-.687A.687.687,0,0,1,106.891,3.433Zm0,0" transform="translate(-95.074)" fill="#6e83b7"/>
      <path id="Path_12951" data-name="Path 12951" d="M82.444,58.746H72.832a.687.687,0,0,1-.687-.687V56.687A.687.687,0,0,1,72.832,56h9.613a.687.687,0,0,1,.687.687V58.06A.687.687,0,0,1,82.444,58.746Zm0,0" transform="translate(-65.82 -51.194)" fill="#6e83b7"/>
      <path id="Path_12952" data-name="Path 12952" d="M104.145,48h5.493v.687h-5.493Zm0,0" transform="translate(-95.074 -43.88)" fill="#466089"/>
      <path id="Path_12953" data-name="Path 12953" d="M229.877,297.165l-13.732-13.732L219.578,280l13.732,13.732a2.428,2.428,0,1,1-3.433,3.433Zm0,0" transform="translate(-197.461 -255.968)" fill="#6e83b7"/>
      <path id="Path_12954" data-name="Path 12954" d="M219.578,280l-3.433,3.433,6.723,6.723a10.364,10.364,0,0,0,3.433-3.433Zm0,0" transform="translate(-197.461 -255.968)" fill="#466089"/>
      <path id="Path_12955" data-name="Path 12955" d="M146,200.926A8.926,8.926,0,1,1,137.071,192,8.926,8.926,0,0,1,146,200.926Zm0,0" transform="translate(-117.014 -175.521)" fill="#6e83b7"/>
      <path id="Path_12956" data-name="Path 12956" d="M159.251,215.553A7.553,7.553,0,1,1,151.7,208,7.553,7.553,0,0,1,159.251,215.553Zm0,0" transform="translate(-131.641 -190.148)" fill="#f4f4ff"/>
      <path id="Path_12957" data-name="Path 12957" d="M176.55,253.094l-3.717-3.718,1.942-1.942,1.776,1.775,4.522-4.521,1.942,1.942Zm0,0" transform="translate(-157.866 -223.687)" fill="#fe9923"/>
    </g>
  </g>
</svg>
