<svg xmlns="http://www.w3.org/2000/svg" xmlns:xlink="http://www.w3.org/1999/xlink" width="512" height="512" viewBox="0 0 512 512">
  <defs>
    <clipPath id="clip-Artboard_10">
      <rect width="512" height="512"/>
    </clipPath>
  </defs>
  <g id="Artboard_10" data-name="Artboard – 10" clip-path="url(#clip-Artboard_10)">
    <g id="book" transform="translate(0.309 0.051)">
      <path id="Path_84" data-name="Path 84" d="M385.444,225.072,285.9,300.927H225.94L126.4,225.072A134.242,134.242,0,0,1,225.94,181H285.9A134.241,134.241,0,0,1,385.444,225.072Z" transform="translate(-0.076 -0.109)" fill="#cbcbcb"/>
      <path id="Path_85" data-name="Path 85" d="M385.521,225.072l-99.539,75.855H256V181h29.982A134.24,134.24,0,0,1,385.521,225.072Z" transform="translate(-0.154 -0.109)" fill="#fff"/>
      <path id="Path_86" data-name="Path 86" d="M481.727,225.991V435.864a14.845,14.845,0,0,1-14.991,14.991c-79.751,0-143.114,18.687-202.477,58.563h-.9a1.049,1.049,0,0,1-.3.6,15.979,15.979,0,0,1-7.2,1.8,13.119,13.119,0,0,1-7.5-2.4h-.9C188.1,469.543,124.742,450.855,44.991,450.855A14.845,14.845,0,0,1,30,435.864V225.991A14.844,14.844,0,0,1,44.991,211c82.45,0,148.509,17.988,210.873,57.264C318.227,228.988,384.286,211,466.736,211A14.844,14.844,0,0,1,481.727,225.991Z" transform="translate(-0.018 -0.127)" fill="#fea832"/>
      <path id="Path_87" data-name="Path 87" d="M481.864,225.991V435.864a14.846,14.846,0,0,1-14.991,14.991c-79.751,0-143.114,18.687-202.476,58.563h-.9a1.049,1.049,0,0,1-.3.6,15.977,15.977,0,0,1-7.2,1.8V268.264C318.364,228.988,384.422,211,466.873,211A14.844,14.844,0,0,1,481.864,225.991Z" transform="translate(-0.154 -0.127)" fill="#fe9923"/>
      <path id="Path_88" data-name="Path 88" d="M255.937,0C198.071,0,151,48.071,151,105.936a104.937,104.937,0,0,0,209.873,0C360.873,48.071,313.8,0,255.937,0Z" transform="translate(-0.091)" fill="#d5d5d5"/>
      <path id="Path_89" data-name="Path 89" d="M29.982,390.928h0A29.982,29.982,0,0,1,0,360.946V300.982A29.981,29.981,0,0,1,29.982,271h0a29.981,29.981,0,0,1,29.982,29.982v59.964A29.982,29.982,0,0,1,29.982,390.928Z" transform="translate(0 -0.164)" fill="#d5d5d5"/>
      <path id="Path_90" data-name="Path 90" d="M481.982,390.928h0A29.981,29.981,0,0,1,452,360.946V300.982A29.981,29.981,0,0,1,481.982,271h0a29.981,29.981,0,0,1,29.982,29.982v59.964A29.982,29.982,0,0,1,481.982,390.928Z" transform="translate(-0.273 -0.164)" fill="#fff"/>
      <path id="Path_91" data-name="Path 91" d="M360.937,105.936A105.052,105.052,0,0,1,256,210.873V0C313.865,0,360.937,48.071,360.937,105.936Z" transform="translate(-0.154)" fill="#fff"/>
    </g>
  </g>
</svg>
