<svg xmlns="http://www.w3.org/2000/svg" xmlns:xlink="http://www.w3.org/1999/xlink" width="42" height="42" viewBox="0 0 42 42">
  <defs>
    <clipPath id="clip-Artboard_10">
      <rect width="42" height="42"/>
    </clipPath>
  </defs>
  <g id="Artboard_10" data-name="Artboard – 10" clip-path="url(#clip-Artboard_10)">
    <g id="school_1_" data-name="school (1)" transform="translate(-6.152)">
      <path id="Path_15990" data-name="Path 15990" d="M226.069,10l-1.529,2.006,1.529,2.006H220.05V10Z" transform="translate(-192.74 -9.045)" fill="#f6a00a"/>
      <g id="Group_641" data-name="Group 641" transform="translate(15.195 7.767)">
        <path id="Path_15991" data-name="Path 15991" d="M113.3,93.023l-8.035-6.879-8.083,6.888-1.557,1.318L93.25,91.59,105.269,81.3l12.019,10.29-2.427,2.761Z" transform="translate(-93.25 -81.3)" fill="#fdc75b"/>
        <path id="Path_15992" data-name="Path 15992" d="M314.605,247.811v15.678H303.15V245.9h9.544A1.91,1.91,0,0,1,314.605,247.811Z" transform="translate(-283.096 -230.174)" fill="#fdc75b"/>
      </g>
      <path id="Path_15993" data-name="Path 15993" d="M150.568,142.882v17.589h-4.748v-8.723h-6.573v8.723h-4.8V138.888L142.533,132l8.035,6.879Z" transform="translate(-115.319 -119.389)" fill="#fff"/>
      <g id="Group_642" data-name="Group 642" transform="translate(7.896 23.493)">
        <rect id="Rectangle_8402" data-name="Rectangle 8402" width="6.573" height="8.723" transform="translate(16.032 8.866)" fill="#fdc75b"/>
        <path id="Path_15994" data-name="Path 15994" d="M28.085,245.9v17.589H16.85V247.811a1.916,1.916,0,0,1,1.911-1.911Z" transform="translate(-16.85 -245.9)" fill="#fdc75b"/>
      </g>
      <path id="Path_15995" data-name="Path 15995" d="M44.793,22.547H36.185v-.984a.959.959,0,0,0,1.328-.115l2.427-2.771a.933.933,0,0,0,.239-.7.983.983,0,0,0-.334-.659L28.255,7.414V5.923h5.083a.967.967,0,0,0,.86-.535.953.953,0,0,0-.1-1L33,2.962l1.089-1.433A.951.951,0,0,0,33.328,0H27.309a.968.968,0,0,0-.975.955V7.242L14.565,17.331a.951.951,0,0,0-.325.65.98.98,0,0,0,.229.7l2.379,2.771a.905.905,0,0,0,.7.334.743.743,0,0,0,.573-.21v.975H9.807A2.846,2.846,0,0,0,6.95,25.4V41.082a.944.944,0,0,0,.946.955H46.714a.944.944,0,0,0,.946-.955V25.4A2.86,2.86,0,0,0,44.793,22.547ZM8.861,25.4a.936.936,0,0,1,.946-.946h8.321V40.127H8.861Zm9.649-6.64-.831.707-1.137-1.318L27.214,9.019l10.662,9.134-1.166,1.328-8.876-7.6a.956.956,0,0,0-1.242,0L18.51,18.764ZM34.274,40.127H31.408V32.359a.894.894,0,0,0-.908-.927H23.927a.91.91,0,0,0-.927.927v7.767H20.039V19.939l7.137-6.067,7.1,6.067Zm-4.777,0H24.911V33.343H29.5Zm6.688-15.668h8.608a.942.942,0,0,1,.946.946V40.127H36.185ZM31.045,3.535l.363.478H28.255v-2.1h3.153l-.363.468A.96.96,0,0,0,31.045,3.535Z" fill="#fff"/>
      <path id="Path_15996" data-name="Path 15996" d="M174.25,268.955a.958.958,0,0,0,.955.955h6.611a.955.955,0,1,0,0-1.911h-6.611A.952.952,0,0,0,174.25,268.955Z" transform="translate(-151.316 -242.395)" fill="#f6a00a"/>
      <path id="Path_15997" data-name="Path 15997" d="M45.905,283.8a.958.958,0,0,0-.955.955V286.4a.955.955,0,1,0,1.911,0v-1.643A.958.958,0,0,0,45.905,283.8Z" transform="translate(-34.369 -256.686)" fill="#fff"/>
      <path id="Path_15998" data-name="Path 15998" d="M86.905,283.8a.958.958,0,0,0-.955.955V286.4a.955.955,0,1,0,1.911,0v-1.643A.958.958,0,0,0,86.905,283.8Z" transform="translate(-71.452 -256.686)" fill="#fff"/>
      <path id="Path_15999" data-name="Path 15999" d="M45.905,350.8a.958.958,0,0,0-.955.955V353.4a.955.955,0,1,0,1.911,0v-1.643A.958.958,0,0,0,45.905,350.8Z" transform="translate(-34.369 -317.285)" fill="#fff"/>
      <path id="Path_16000" data-name="Path 16000" d="M86.905,350.8a.958.958,0,0,0-.955.955V353.4a.955.955,0,1,0,1.911,0v-1.643A.958.958,0,0,0,86.905,350.8Z" transform="translate(-71.452 -317.285)" fill="#fff"/>
      <path id="Path_16001" data-name="Path 16001" d="M334.905,283.8a.958.958,0,0,0-.955.955V286.4a.955.955,0,1,0,1.911,0v-1.643A.958.958,0,0,0,334.905,283.8Z" transform="translate(-295.759 -256.686)" fill="#fff"/>
      <path id="Path_16002" data-name="Path 16002" d="M374.905,283.8a.958.958,0,0,0-.955.955V286.4a.955.955,0,1,0,1.911,0v-1.643A.958.958,0,0,0,374.905,283.8Z" transform="translate(-331.937 -256.686)" fill="#fff"/>
      <path id="Path_16003" data-name="Path 16003" d="M334.905,350.8a.958.958,0,0,0-.955.955V353.4a.955.955,0,1,0,1.911,0v-1.643A.958.958,0,0,0,334.905,350.8Z" transform="translate(-295.759 -317.285)" fill="#fff"/>
      <path id="Path_16004" data-name="Path 16004" d="M374.905,350.8a.958.958,0,0,0-.955.955V353.4a.955.955,0,1,0,1.911,0v-1.643A.958.958,0,0,0,374.905,350.8Z" transform="translate(-331.937 -317.285)" fill="#fff"/>
    </g>
  </g>
</svg>
